<?xml version="1.0" standalone="no"?>
<!DOCTYPE svg PUBLIC "-//W3C//DTD SVG 1.0//EN" "http://www.w3.org/TR/2001/REC-SVG-20010904/DTD/svg10.dtd">
<svg xmlns="http://www.w3.org/2000/svg" xmlns:xlink="http://www.w3.org/1999/xlink" id="body_1" width="100" height="64">

<g transform="matrix(0.042666666 0 0 0.042666666 36 -0)">
	<g transform="matrix(0.1 0 -0 -0.1 0 1500)">
	</g>
    <path transform="matrix(0.1 0 -0 -0.1 0 1500)"  d="M9423 13682L8832 13435L8183 12837L7535 12239L7356 12125C 7258 12062 7167 12010 7154 12010C 7142 12010 6899 11992 6615 11970C 6107 11931 6091 11930 5590 11930L5590 11930L5081 11930L4686 11618L4292 11305L4280 11245C 4273 11212 4264 11181 4260 11177C 4256 11173 4162 11152 4051 11130C 3940 11109 3844 11088 3837 11082C 3830 11077 3629 10925 3390 10745C 3151 10565 2952 10414 2948 10411C 2944 10408 2965 10108 2995 9745C 3024 9382 3057 8982 3066 8856L3066 8856L3084 8626L3213 8481C 3371 8303 3611 8048 3616 8053C 3618 8055 3557 8207 3479 8391L3479 8391L3339 8725L3248 9330L3157 9935L3186 10108C 3202 10203 3217 10285 3220 10289C 3224 10295 4040 10470 4124 10484C 4129 10484 4217 10340 4320 10162L4320 10162L4507 9838L4916 9572L5325 9305L5368 8895C 5391 8669 5412 8480 5415 8473C 5417 8466 5465 8438 5522 8409C 5579 8381 5816 8234 6049 8081L6049 8081L6473 7805L6568 7683L6663 7560L6715 7560C 6763 7560 6770 7557 6794 7525L6794 7525L6821 7490L6788 7462L6756 7433L6769 7294C 6776 7217 6783 7154 6785 7152C 6797 7140 7180 7050 7203 7054L7203 7054L7230 7059L7230 6954L7230 6849L7286 6779L7342 6710L7403 6710C 7454 6710 7504 6724 7687 6788C 7810 6830 7910 6867 7910 6870C 7910 6873 7830 6941 7733 7020C 7414 7281 7442 7251 7147 7644L7147 7644L6876 8005L6736 8355L6597 8705L6475 9210C 6391 9559 6357 9716 6365 9718C 6372 9720 6606 9689 6886 9650L6886 9650L7395 9578L7787 9646L8178 9713L8284 9630C 8385 9552 8406 9527 8756 9092L8756 9092L9123 8636L9132 8467C 9137 8374 9140 8290 9138 8280C 9135 8263 8616 7800 8599 7800C 8595 7800 8582 7824 8570 7853L8570 7853L8548 7907L8397 7864C 8315 7840 8246 7819 8245 7818C 8244 7816 8203 7748 8155 7665C 8107 7583 8059 7500 8047 7481L8047 7481L8026 7447L8229 7453L8432 7460L8563 7505C 8634 7530 8700 7548 8709 7546C 8718 7543 8779 7540 8844 7538L8844 7538L8963 7535L9144 7824L9325 8113L9417 8164C 9469 8193 9513 8223 9516 8234C 9520 8245 9535 8331 9549 8427L9549 8427L9577 8600L9338 9136C 9207 9431 9100 9685 9100 9700C 9100 9723 9123 9750 9225 9845L9225 9845L9350 9962L9847 9734C 10138 9601 10351 9498 10360 9486C 10368 9475 10427 9386 10490 9290L10490 9290L10606 9114L10624 8762L10642 8410L10609 8369L10577 8328L10506 8334C 10467 8338 10430 8337 10423 8333C 10409 8323 10330 8144 10330 8121C 10329 8088 10383 7854 10394 7844C 10403 7834 10597 7760 10612 7760C 10615 7760 10650 7814 10689 7880C 10750 7981 10776 8041 10860 8275L10860 8275L10960 8551L10895 8893C 10846 9149 10813 9292 10763 9460C 10727 9584 10694 9686 10689 9688C 10685 9690 10581 9761 10457 9845L10457 9845L10233 10000L10056 10235L9880 10470L9953 10572L10025 10675L10035 10880L10045 11085L9978 11222L9910 11360L9991 11532L10072 11705L10168 11782C 10275 11866 10267 11865 10340 11810L10340 11810L10365 11791L10344 11749L10324 11707L10352 11488L10379 11268L10454 11190L10529 11112L10610 10859C 10665 10691 10690 10598 10686 10581C 10683 10567 10663 10489 10642 10409L10642 10409L10603 10263L10661 10231C 10736 10190 10821 10117 10837 10082C 10845 10065 10849 10061 10850 10072C 10850 10095 10857 10098 11051 10165L11051 10165L11216 10222L11325 10454L11434 10685L11441 10805C 11446 10889 11463 10997 11499 11165L11499 11165L11550 11405L11615 11465L11679 11525L11668 11618C 11662 11669 11660 11713 11663 11717C 11666 11720 11753 11703 11855 11680C 11957 11657 12043 11640 12047 11643C 12050 11647 12006 11802 11948 11989L11948 11989L11843 12328L11942 12417L12040 12505L11880 12510L11720 12515L11433 12802C 11154 13079 11129 13101 10626 13509L10626 13509L10107 13930L10061 13929C 10025 13928 9887 13875 9423 13682zM10201 13638L10331 13375L10128 13368C 9817 13358 9430 13354 9432 13361C 9435 13367 10063 13899 10068 13900C 10070 13900 10129 13782 10201 13638zM9955 13851C 9949 13847 9824 13740 9675 13615C 9527 13490 9396 13379 9385 13369C 9366 13352 9357 13353 9151 13390C 9034 13412 8936 13431 8934 13433C 8931 13435 9034 13481 9162 13534C 9290 13587 9519 13681 9670 13744C 9937 13855 9975 13870 9955 13851zM10560 13515C 10783 13335 10971 13182 10979 13174C 10987 13167 10855 13206 10686 13263L10686 13263L10378 13365L10253 13615C 10184 13752 10134 13859 10141 13853C 10149 13848 10337 13695 10560 13515zM9098 13363C 9214 13343 9310 13324 9310 13320C 9309 13314 8476 12821 8472 12825C 8464 12832 8857 13399 8870 13400C 8878 13400 8981 13384 9098 13363zM10787 12868C 11029 12608 11241 12378 11259 12358L11259 12358L11291 12321L11231 12195C 11181 12089 11168 12070 11149 12070C 11126 12070 10680 12115 10604 12125L10604 12125L10562 12131L10389 12528C 10294 12746 10216 12926 10215 12927C 10215 12928 10057 12951 9864 12977L9864 12977L9513 13026L8659 12685C 8189 12498 7785 12336 7760 12326C 7735 12317 7720 12313 7725 12318C 7757 12347 8128 12574 8714 12922L8714 12922L9384 13320L9559 13321C 9754 13323 10319 13335 10336 13338C 10342 13339 10545 13127 10787 12868zM11179 12754C 11229 12569 11269 12416 11267 12413C 11264 12411 11090 12595 10880 12822C 10669 13049 10481 13252 10462 13272L10462 13272L10426 13310L10756 13200L11086 13090L11179 12754zM8723 13267C 8719 13260 8642 13146 8553 13014L8553 13014L8391 12774L8306 12789C 8259 12797 8220 12806 8220 12810C 8220 12817 8719 13280 8727 13280C 8729 13280 8727 13274 8723 13267zM11478 12707L11782 12403L11891 12049C 11950 11854 12000 11692 12000 11689C 12000 11684 11697 11751 11663 11764C 11656 11767 11650 11780 11650 11794C 11650 11809 11622 11854 11573 11916L11573 11916L11497 12013L11569 12157C 11609 12237 11640 12303 11638 12304C 11636 12306 11568 12314 11486 12323C 11404 12333 11334 12342 11332 12345C 11329 12348 11298 12454 11263 12582C 11135 13052 11140 13031 11158 13021C 11168 13015 11312 12874 11478 12707zM9872 12939L10189 12896L10265 12722C 10307 12626 10340 12547 10338 12546C 10336 12544 10106 12524 9827 12501C 9397 12465 9316 12460 9300 12472C 9266 12495 8961 12755 8961 12761C 8959 12771 9515 12988 9535 12985C 9546 12983 9698 12963 9872 12939zM8314 12752C 8341 12745 8336 12740 8209 12666C 8135 12622 8028 12557 7970 12520C 7703 12350 7702 12343 7975 12595L7975 12595L8165 12770L8225 12765C 8258 12762 8298 12756 8314 12752zM9123 12571C 9204 12502 9269 12442 9268 12438C 9264 12426 8718 11939 8713 11944C 8707 11949 8830 12420 8906 12688L8906 12688L8922 12740L8948 12718C 8963 12705 9042 12639 9123 12571zM8876 12713C 8857 12652 8732 12188 8699 12056C 8678 11968 8658 11894 8655 11892C 8649 11886 7620 12208 7608 12219C 7602 12225 8850 12728 8873 12730C 8878 12730 8879 12722 8876 12713zM10328 12498C 10151 12022 10045 11743 10036 11734C 10025 11723 9643 11663 9637 11671C 9627 11683 9337 12420 9341 12424C 9345 12428 10233 12507 10299 12509C 10322 12510 10331 12506 10328 12498zM11908 12430L11835 12370L11825 12395C 11819 12409 11799 12436 11780 12455L11780 12455L11746 12490L11864 12490L11982 12490L11908 12430zM10454 12291L10532 12111L10459 11971C 10419 11893 10382 11830 10378 11830C 10373 11830 10351 11842 10327 11857C 10304 11872 10284 11885 10282 11886C 10276 11890 10364 12470 10370 12470C 10374 12470 10411 12389 10454 12291zM9455 12021C 9535 11822 9600 11657 9598 11655C 9587 11644 9015 11370 9008 11372C 9004 11374 8928 11483 8840 11615C 8688 11842 8681 11856 8698 11872C 8707 11881 8846 12006 9005 12148C 9181 12306 9298 12403 9302 12396C 9305 12390 9374 12221 9455 12021zM10274 12108C 10256 11991 10241 11892 10241 11889C 10240 11880 10109 11778 10104 11783C 10102 11785 10143 11901 10195 12041C 10247 12181 10292 12301 10295 12308C 10308 12343 10303 12302 10274 12108zM11520 12281C 11554 12274 11552 12273 11394 12182C 11305 12131 11230 12090 11226 12090C 11219 12090 11305 12267 11323 12288C 11334 12302 11438 12298 11520 12281zM11512 12123L11453 12006L11530 11909C 11615 11803 11614 11805 11626 11630L11626 11630L11632 11535L11590 11495C 11550 11456 11548 11456 11534 11475C 11508 11510 11208 12031 11211 12035C 11216 12039 11564 12239 11568 12240C 11569 12240 11544 12187 11512 12123zM8100 12019C 8383 11931 8618 11855 8622 11851C 8632 11842 8515 11557 8500 11552C 8488 11548 7262 11987 7247 12000C 7242 12004 7305 12050 7387 12102C 7512 12182 7539 12196 7560 12189C 7574 12185 7817 12108 8100 12019zM10870 12060C 11025 12044 11156 12030 11160 12030C 11167 12030 11482 11493 11496 11457C 11500 11445 11492 11439 11458 11430C 11435 11423 11350 11400 11270 11379C 11190 11357 11112 11339 11095 11339C 11075 11339 10950 11398 10715 11520C 10523 11619 10365 11702 10363 11703C 10357 11710 10564 12090 10574 12090C 10581 12090 10715 12077 10870 12060zM7747 11775C 8043 11668 8277 11581 8267 11580C 8248 11580 6691 11808 6675 11814C 6670 11816 6683 11822 6705 11829C 6727 11835 6840 11869 6955 11904C 7071 11939 7175 11968 7187 11969C 7199 11969 7451 11882 7747 11775zM6999 11956C 6997 11954 6912 11927 6810 11897C 6708 11867 6427 11783 6185 11711C 5943 11639 5558 11524 5330 11456C 5102 11388 4914 11333 4912 11335C 4911 11336 4954 11463 5008 11616L5008 11616L5107 11895L5721 11902C 6254 11908 6371 11912 6610 11933C 6873 11956 7008 11964 6999 11956zM4996 11698C 4967 11614 4903 11433 4855 11295C 4806 11158 4764 11041 4759 11036C 4755 11032 4659 11088 4545 11161C 4339 11294 4339 11294 4362 11311C 4375 11321 4531 11445 4710 11589C 4889 11732 5038 11849 5042 11849C 5046 11850 5025 11781 4996 11698zM8948 11385C 8940 11379 8550 11525 8550 11535C 8550 11544 8608 11693 8657 11808C 8660 11815 8725 11727 8807 11605C 8886 11486 8950 11387 8948 11385zM7526 11650C 8053 11573 8486 11508 8488 11505C 8491 11503 8452 11401 8403 11278C 8041 10380 7896 10024 7888 10014C 7882 10006 7686 10004 7177 10007L7177 10007L6475 10012L6100 10207C 5759 10385 5683 10430 5265 10698C 5012 10860 4802 10996 4798 10999C 4791 11005 4881 11274 4893 11286C 4895 11288 5272 11402 5731 11539C 6190 11676 6566 11789 6567 11789C 6568 11790 7000 11727 7526 11650zM10018 11681C 9998 11630 9885 11400 9879 11400C 9872 11400 9677 11615 9672 11628C 9671 11632 9745 11647 9837 11662C 9930 11676 10009 11688 10013 11689C 10018 11689 10020 11686 10018 11681zM10700 11490C 10875 11399 11015 11322 11012 11319C 11008 11316 10903 11272 10778 11223L10778 11223L10552 11133L10480 11205L10408 11277L10384 11466C 10371 11570 10360 11657 10360 11658C 10360 11665 10386 11652 10700 11490zM9751 11485C 9866 11361 9874 11349 9939 11215L9939 11215L10007 11074L9997 10881L9988 10688L9917 10586L9846 10484L9491 10242C 9296 10109 9134 10002 9132 10005C 9128 10008 9038 11119 9028 11274L9028 11274L9025 11332L9320 11476C 9482 11554 9618 11618 9623 11617C 9627 11616 9684 11556 9751 11485zM8756 11410C 8876 11367 8974 11327 8973 11323C 8969 11302 8616 10314 8611 10308C 8608 10304 8547 10469 8476 10675L8476 10675L8347 11049L8436 11269C 8485 11391 8528 11490 8531 11490C 8534 11490 8636 11454 8756 11410zM11504 11383C 11452 11165 11407 10917 11401 10815L11401 10815L11394 10695L11292 10475C 11235 10354 11184 10252 11177 10248C 11156 10235 10869 10138 10865 10142C 10855 10151 11090 11295 11103 11299C 11134 11310 11477 11398 11492 11399C 11503 11400 11507 11394 11504 11383zM11047 11268C 11044 11255 10995 11014 10939 10731C 10870 10384 10834 10223 10828 10236C 10807 10286 10590 11105 10597 11108C 10601 11109 10702 11151 10820 11199C 10938 11248 11039 11289 11044 11289C 11048 11290 11050 11280 11047 11268zM4998 10825C 5356 10594 5646 10402 5642 10398C 5633 10389 4541 9870 4532 9870C 4528 9871 4443 10015 4343 10190L4343 10190L4160 10510L4236 10867C 4324 11288 4318 11262 4335 11253C 4342 11248 4641 11056 4998 10825zM9045 10586C 9070 10268 9089 10005 9086 10003C 9084 10001 8981 10054 8857 10122L8857 10122L8632 10244L8669 10350C 8690 10408 8769 10632 8846 10848C 8974 11210 8986 11237 8992 11203C 8997 11182 9020 10904 9045 10586zM4249 11113C 4249 11103 4237 11039 4221 10971L4221 10971L4194 10846L3775 10754C 3544 10703 3352 10662 3349 10663C 3346 10664 3461 10754 3605 10862L3605 10862L3867 11059L4046 11093C 4261 11135 4250 11134 4249 11113zM8444 10658C 8502 10491 8557 10330 8568 10298L8568 10298L8588 10242L8389 10006C 8279 9876 8184 9770 8179 9770C 8173 9770 8113 9820 8045 9880L8045 9880L7922 9991L8123 10490C 8254 10815 8327 10985 8332 10976C 8337 10968 8387 10825 8444 10658zM4180 10785C 4180 10761 4129 10536 4121 10528C 4114 10520 3308 10349 3303 10354C 3301 10356 3416 10440 3559 10541L3559 10541L3820 10725L3982 10762C 4171 10804 4180 10805 4180 10785zM3700 10687C 3671 10660 3238 10359 3234 10363C 3228 10368 3270 10594 3278 10602C 3285 10608 3672 10698 3700 10699C 3713 10700 3713 10698 3700 10687zM3142 10062C 3094 9786 3053 9560 3050 9560C 3047 9560 3032 9721 3016 9918C 3001 10114 2986 10300 2983 10330L2983 10330L2978 10386L3101 10478C 3168 10529 3225 10569 3226 10567C 3227 10566 3190 10339 3142 10062zM10761 10339C 10786 10246 10804 10170 10800 10170C 10796 10170 10787 10177 10780 10185C 10773 10193 10740 10217 10706 10237C 10673 10257 10644 10274 10642 10275C 10641 10276 10654 10332 10671 10399C 10689 10465 10706 10518 10709 10514C 10712 10511 10735 10433 10761 10339zM10012 10228C 10099 10112 10169 10016 10167 10014C 10165 10013 9511 10126 9435 10141C 9420 10144 9457 10174 9575 10254C 9663 10314 9760 10381 9790 10402C 9820 10423 9847 10440 9850 10440C 9853 10439 9926 10344 10012 10228zM5738 10243C 5790 10115 5797 10090 5782 10090C 5777 10090 5538 10050 5249 10001C 4961 9952 4724 9913 4723 9914C 4720 9916 5672 10369 5681 10370C 5684 10370 5710 10313 5738 10243zM6085 10175C 6272 10077 6428 9995 6432 9991C 6439 9984 6326 9774 6315 9776C 6311 9777 6202 9849 6072 9938L6072 9938L5835 10098L5796 10197C 5774 10251 5750 10310 5743 10328C 5735 10347 5733 10360 5737 10357C 5741 10355 5898 10273 6085 10175zM8870 10075C 8988 10011 9087 9957 9088 9955C 9094 9949 9067 9690 9061 9689C 9058 9689 8920 9667 8755 9641C 8590 9614 8453 9594 8451 9597C 8448 9599 8479 9716 8519 9858C 8629 10241 8618 10212 8638 10201C 8647 10196 8752 10139 8870 10075zM8483 9861C 8441 9712 8403 9590 8400 9590C 8397 9591 8353 9624 8303 9664L8303 9664L8211 9737L8382 9939C 8476 10050 8555 10139 8557 10137C 8559 10134 8526 10011 8483 9861zM10206 9967C 10213 9956 10328 9565 10325 9562C 10320 9556 9370 9991 9364 10002C 9360 10007 9361 10035 9364 10064L9364 10064L9371 10116L9788 10042C 10017 10002 10205 9968 10206 9967zM9324 10033C 9318 9986 9313 9979 9214 9886L9214 9886L9109 9788L9114 9827C 9133 9968 9121 9948 9228 10021C 9281 10058 9326 10086 9328 10085C 9330 10084 9328 10060 9324 10033zM5778 10042C 5777 10037 5677 9877 5556 9687C 5402 9442 5334 9343 5325 9348C 5317 9352 5143 9465 4936 9600C 4704 9751 4567 9846 4578 9849C 4631 9860 5739 10048 5758 10049C 5771 10050 5780 10046 5778 10042zM6107 9872C 6219 9798 6312 9730 6314 9721C 6317 9712 6362 9525 6415 9305C 6467 9085 6513 8896 6516 8885C 6523 8858 6524 8857 6167 9305L6167 9305L5865 9685L5858 9775C 5855 9825 5851 9905 5851 9954L5851 9954L5850 10042L5878 10024C 5893 10015 5996 9946 6107 9872zM5839 9439C 5855 9129 5867 8874 5866 8873C 5864 8871 5424 9263 5381 9305C 5370 9316 5401 9372 5585 9664C 5705 9855 5804 10009 5807 10007C 5809 10004 5824 9749 5839 9439zM7838 9965C 7841 9962 7432 9644 7405 9628C 7394 9622 6636 9937 6583 9970C 6570 9977 6743 9979 7200 9974C 7549 9970 7836 9966 7838 9965zM6870 9803C 7074 9717 7238 9644 7233 9643C 7221 9639 6370 9757 6363 9763C 6360 9766 6384 9814 6415 9870C 6453 9937 6476 9970 6485 9966C 6493 9963 6666 9890 6870 9803zM8016 9858C 8125 9762 8144 9740 8119 9740C 8113 9740 7967 9715 7794 9685C 7621 9655 7477 9630 7474 9630C 7468 9630 7892 9958 7898 9959C 7900 9960 7953 9914 8016 9858zM10602 9700C 10623 9686 10639 9673 10639 9670C 10639 9662 10380 9547 10374 9552C 10371 9555 10345 9638 10314 9736C 10284 9835 10258 9921 10255 9928C 10251 9939 10329 9888 10602 9700zM3210 9344C 3248 9092 3278 8884 3276 8883C 3274 8881 3225 8993 3167 9132L3167 9132L3060 9385L3097 9597C 3117 9714 3135 9808 3138 9806C 3140 9804 3173 9596 3210 9344zM9064 9628C 9071 9595 9121 8718 9117 8713C 9115 8711 8962 8897 8777 9127C 8592 9356 8443 9546 8445 9548C 8448 9551 9012 9646 9047 9649C 9054 9649 9062 9640 9064 9628zM10655 9588C 10652 9564 10640 9464 10629 9365C 10618 9266 10607 9184 10606 9183C 10603 9179 10398 9497 10398 9507C 10398 9514 10636 9629 10653 9630C 10658 9630 10659 9611 10655 9588zM6219 9183L6531 8791L6520 8748C 6501 8671 6366 8260 6360 8260C 6357 8260 6323 8304 6286 8357C 6221 8447 6206 8481 6049 8873L6049 8873L5881 9292L5873 9456L5865 9620L5886 9597C 5897 9585 6047 9399 6219 9183zM9328 9068L9539 8592L9515 8440C 9502 8357 9490 8286 9488 8284C 9484 8281 9230 8569 9177 8636C 9162 8655 9156 8717 9135 9062C 9110 9458 9106 9557 9114 9549C 9116 9547 9213 9331 9328 9068zM10744 9390C 10784 9253 10896 8711 10888 8690C 10886 8685 10829 8781 10761 8903L10761 8903L10637 9125L10660 9330C 10681 9519 10687 9557 10695 9548C 10697 9546 10718 9475 10744 9390zM5658 9005C 5769 8906 5858 8825 5857 8824C 5856 8823 5763 8752 5651 8666C 5539 8580 5446 8510 5445 8512C 5441 8516 5370 9206 5370 9238C 5370 9266 5352 9281 5658 9005zM3288 8755C 3382 8535 3475 8317 3495 8270L3495 8270L3531 8185L3502 8215C 3477 8241 3169 8588 3133 8631C 3124 8641 3113 8729 3100 8896C 3089 9033 3078 9170 3075 9200L3075 9200L3071 9255L3094 9205C 3107 9178 3195 8975 3288 8755zM6240 8356C 6272 8312 6297 8274 6295 8272C 6293 8270 6256 8288 6214 8311L6214 8311L6137 8355L6019 8595L5902 8835L5896 9000L5890 9165L6035 8801C 6164 8478 6188 8428 6240 8356zM10780 8801C 10851 8673 10910 8565 10910 8561C 10910 8553 10682 8435 10677 8440C 10674 8443 10667 8553 10661 8685C 10655 8817 10647 8952 10644 8985C 10640 9018 10640 9043 10644 9039C 10647 9036 10708 8929 10780 8801zM5987 8580C 6043 8464 6085 8370 6080 8370C 6063 8370 5487 8479 5483 8483C 5479 8488 5868 8790 5878 8790C 5882 8790 5931 8695 5987 8580zM6700 8341C 6777 8140 6838 7974 6835 7972C 6832 7969 6408 8201 6392 8215C 6391 8216 6411 8280 6438 8356C 6465 8433 6502 8546 6521 8609C 6539 8672 6555 8719 6557 8714C 6559 8709 6623 8541 6700 8341zM9314 8419C 9390 8331 9451 8257 9449 8256C 9443 8250 9192 8275 9185 8282C 9182 8285 9177 8337 9174 8396C 9171 8456 9168 8522 9166 8543C 9164 8563 9165 8580 9169 8580C 9173 8580 9238 8508 9314 8419zM10828 8301C 10788 8190 10753 8105 10749 8112C 10740 8131 10677 8390 10681 8394C 10692 8404 10895 8509 10897 8506C 10899 8504 10868 8412 10828 8301zM5849 8375C 5983 8350 6096 8330 6101 8330C 6107 8330 6374 7953 6405 7901C 6415 7883 6447 7863 6029 8136C 5834 8263 5651 8380 5622 8394C 5571 8420 5553 8436 5588 8426C 5597 8423 5715 8400 5849 8375zM10684 8222C 10698 8160 10710 8107 10710 8104C 10710 8098 10632 8165 10540 8250L10540 8250L10485 8301L10537 8295C 10587 8290 10589 8290 10616 8325C 10650 8369 10650 8369 10684 8222zM6508 8104C 6649 8024 6768 7956 6772 7952C 6775 7948 6716 7920 6639 7889L6639 7889L6500 7832L6353 8044C 6273 8160 6202 8261 6196 8269C 6181 8288 6198 8279 6508 8104zM10591 8154C 10667 8085 10728 8025 10726 8022C 10725 8018 10695 7967 10661 7908L10661 7908L10599 7801L10517 7831C 10472 7848 10432 7864 10428 7868C 10421 7875 10440 8280 10448 8280C 10450 8280 10514 8223 10591 8154zM9390 8221L9435 8214L9365 8176L9295 8137L9150 7904C 9071 7776 9005 7672 9003 7673C 9002 7675 9040 7803 9088 7959L9088 7959L9175 8241L9260 8234C 9307 8231 9365 8224 9390 8221zM9029 7900C 8979 7738 8935 7602 8932 7599C 8924 7591 8637 7752 8634 7766C 8632 7774 9112 8201 9117 8196C 9118 8195 9078 8062 9029 7900zM10394 8050L10387 8005L10374 8060C 10362 8108 10363 8120 10378 8160L10378 8160L10395 8205L10398 8150C 10400 8120 10398 8075 10394 8050zM6899 7900L6932 7855L6896 7895C 6876 7917 6860 7939 6860 7944C 6860 7949 6861 7951 6863 7949C 6865 7947 6881 7925 6899 7900zM6786 7893C 6751 7798 6674 7610 6670 7611C 6663 7611 6530 7790 6530 7799C 6530 7805 6761 7906 6784 7909C 6788 7909 6789 7902 6786 7893zM6941 7777C 6994 7710 7036 7653 7035 7652C 7030 7646 6728 7609 6724 7613C 6721 7615 6745 7683 6776 7764C 6808 7844 6835 7908 6838 7905C 6841 7902 6887 7845 6941 7777zM8549 7812L8572 7763L8491 7627L8409 7490L8292 7490C 8228 7490 8158 7487 8138 7484C 8112 7479 8100 7481 8100 7489C 8100 7496 8138 7566 8185 7645L8185 7645L8270 7789L8328 7805C 8359 7814 8412 7830 8445 7840C 8478 7850 8510 7859 8516 7859C 8522 7860 8537 7838 8549 7812zM6951 7833C 6964 7817 6963 7816 6948 7829C 6938 7836 6930 7844 6930 7846C 6930 7854 6938 7849 6951 7833zM8746 7654C 8820 7613 8880 7577 8880 7575C 8880 7573 8834 7574 8778 7577C 8678 7582 8671 7581 8572 7546C 8515 7526 8470 7514 8472 7518C 8486 7553 8596 7730 8603 7730C 8608 7730 8672 7696 8746 7654zM7125 7543C 7168 7487 7177 7470 7163 7470C 7133 7470 6926 7491 6911 7496C 6903 7498 6929 7525 6976 7560C 7018 7593 7057 7619 7061 7618C 7065 7616 7093 7582 7125 7543zM6955 7592C 6949 7587 6924 7567 6899 7546L6899 7546L6852 7509L6826 7541C 6811 7558 6802 7575 6805 7578C 6811 7585 6887 7597 6935 7599C 6951 7599 6960 7596 6955 7592zM7051 7444C 7130 7435 7196 7427 7198 7425C 7200 7423 7221 7356 7245 7275L7245 7275L7288 7129L7234 7105L7179 7081L7002 7126C 6905 7151 6822 7175 6818 7178C 6814 7182 6806 7234 6800 7294L6800 7294L6789 7403L6816 7431C 6849 7465 6855 7466 7051 7444zM7341 7315C 7370 7276 7428 7216 7472 7181C 7515 7146 7549 7114 7548 7109C 7545 7102 7271 6890 7264 6890C 7262 6890 7260 6932 7260 6984L7260 6984L7260 7079L7295 7091C 7314 7098 7330 7107 7330 7110C 7330 7113 7310 7186 7285 7272C 7260 7358 7240 7433 7240 7437C 7240 7447 7271 7409 7341 7315zM7711 6983C 7776 6930 7830 6883 7830 6880C 7830 6870 7382 6717 7373 6723C 7368 6726 7343 6755 7318 6788L7318 6788L7271 6847L7423 6963C 7507 7027 7579 7079 7583 7080C 7587 7080 7645 7036 7711 6983z" stroke="none" fill="#000000" fill-rule="nonzero" />
	<g transform="matrix(0.1 0 -0 -0.1 0 1500)">
	</g>
    <path transform="matrix(0.1 0 -0 -0.1 0 1500)"  d="M9932 5170C 9824 5154 9721 5080 9670 4980C 9647 4936 9615 4801 9625 4792C 9628 4789 9670 4784 9718 4782L9718 4782L9806 4778L9818 4836C 9840 4946 9900 5000 9997 5000C 10057 5000 10088 4984 10118 4940C 10151 4891 10146 4798 10107 4718C 10055 4612 9887 4454 9678 4313L9678 4313L9580 4248L9580 4174L9580 4100L9985 4100L10390 4100L10390 4185L10390 4270L10144 4270L9898 4270L9961 4317C 9996 4342 10064 4402 10111 4449C 10313 4650 10378 4841 10299 4999C 10235 5127 10095 5192 9932 5170z" stroke="none" fill="#000000" fill-rule="nonzero" />
	<g transform="matrix(0.1 0 -0 -0.1 0 1500)">
	</g>
    <path transform="matrix(0.1 0 -0 -0.1 0 1500)"  d="M11209 5171C 11142 5157 11062 5110 11015 5058C 10922 4955 10877 4815 10877 4630C 10876 4447 10924 4308 11022 4203C 11097 4124 11162 4096 11280 4092C 11359 4089 11385 4092 11432 4109C 11551 4154 11637 4253 11687 4403C 11711 4476 11714 4501 11714 4625C 11715 4745 11712 4776 11692 4840C 11628 5045 11493 5166 11318 5175C 11278 5177 11229 5175 11209 5171zM11382 4974C 11420 4954 11467 4893 11492 4830C 11523 4753 11525 4535 11496 4446C 11457 4329 11388 4267 11295 4268C 11230 4268 11193 4287 11147 4340C 11092 4405 11065 4502 11065 4635C 11065 4759 11082 4825 11133 4901C 11191 4990 11292 5019 11382 4974z" stroke="none" fill="#000000" fill-rule="nonzero" />
	<g transform="matrix(0.1 0 -0 -0.1 0 1500)">
	</g>
    <path transform="matrix(0.1 0 -0 -0.1 0 1500)"  d="M3390 4629L3390 4098L3618 4103C 3782 4106 3860 4112 3899 4123C 4074 4174 4186 4284 4232 4449C 4255 4533 4257 4710 4235 4795C 4198 4938 4122 5038 4007 5095C 3898 5148 3826 5160 3593 5160L3593 5160L3390 5160L3390 4629zM3866 4965C 3942 4942 3993 4901 4026 4833C 4054 4778 4055 4768 4055 4640C 4055 4520 4052 4499 4032 4454C 4003 4391 3950 4338 3888 4310C 3847 4292 3705 4271 3618 4270L3618 4270L3590 4270L3590 4632L3590 4993L3703 4987C 3764 4983 3838 4974 3866 4965z" stroke="none" fill="#000000" fill-rule="nonzero" />
	<g transform="matrix(0.1 0 -0 -0.1 0 1500)">
	</g>
    <path transform="matrix(0.1 0 -0 -0.1 0 1500)"  d="M4612 4859C 4427 4827 4308 4655 4323 4440C 4333 4293 4401 4183 4517 4125C 4572 4097 4582 4095 4695 4095C 4810 4095 4818 4096 4880 4127C 4916 4145 4959 4173 4975 4190L4975 4190L5005 4221L4945 4274L4886 4327L4838 4294C 4732 4222 4588 4244 4539 4340C 4499 4420 4483 4415 4773 4418L4773 4418L5030 4420L5030 4494C 5030 4584 5002 4680 4960 4739C 4890 4835 4751 4883 4612 4859zM4769 4690C 4796 4677 4815 4657 4829 4627C 4867 4548 4872 4550 4680 4550L4680 4550L4511 4550L4526 4592C 4543 4640 4563 4665 4605 4691C 4645 4716 4720 4716 4769 4690z" stroke="none" fill="#000000" fill-rule="nonzero" />
	<g transform="matrix(0.1 0 -0 -0.1 0 1500)">
	</g>
    <path transform="matrix(0.1 0 -0 -0.1 0 1500)"  d="M5377 4860C 5265 4841 5171 4769 5124 4665C 5030 4459 5099 4216 5277 4128C 5342 4096 5349 4095 5465 4095C 5580 4095 5587 4096 5645 4127C 5678 4144 5719 4172 5735 4190L5735 4190L5765 4222L5706 4275L5648 4327L5599 4294C 5521 4242 5425 4237 5352 4282C 5318 4303 5280 4365 5280 4400C 5280 4420 5285 4420 5535 4420L5535 4420L5790 4420L5796 4445C 5806 4485 5782 4617 5754 4680C 5740 4712 5712 4754 5692 4773C 5619 4844 5491 4879 5377 4860zM5526 4694C 5567 4675 5594 4639 5608 4588L5608 4588L5618 4550L5449 4550C 5260 4550 5264 4549 5299 4618C 5332 4683 5373 4708 5448 4709C 5472 4710 5507 4703 5526 4694z" stroke="none" fill="#000000" fill-rule="nonzero" />
	<g transform="matrix(0.1 0 -0 -0.1 0 1500)">
	</g>
    <path transform="matrix(0.1 0 -0 -0.1 0 1500)"  d="M7183 4860C 7119 4850 7056 4821 7002 4774C 6930 4713 6930 4707 7006 4652L7006 4652L7072 4603L7114 4645C 7205 4735 7344 4724 7386 4623C 7416 4552 7417 4553 7248 4548C 7142 4544 7082 4538 7052 4527C 6945 4487 6906 4428 6912 4314C 6915 4253 6920 4235 6945 4198C 6962 4175 6997 4142 7024 4126C 7065 4100 7084 4096 7161 4092C 7242 4088 7255 4090 7304 4114C 7334 4129 7370 4154 7383 4170C 7413 4205 7420 4200 7420 4143L7420 4143L7420 4100L7500 4100L7580 4100L7580 4323C 7580 4645 7566 4708 7475 4788C 7404 4850 7295 4877 7183 4860zM7400 4406C 7400 4355 7348 4288 7285 4259C 7207 4223 7109 4246 7098 4303C 7093 4331 7111 4383 7131 4396C 7154 4410 7213 4418 7308 4419C 7382 4420 7400 4417 7400 4406z" stroke="none" fill="#000000" fill-rule="nonzero" />
	<g transform="matrix(0.1 0 -0 -0.1 0 1500)">
	</g>
    <path transform="matrix(0.1 0 -0 -0.1 0 1500)"  d="M8077 4859C 8027 4847 7981 4823 7948 4792L7948 4792L7920 4766L7920 4808L7920 4850L7825 4850L7730 4850L7730 4475L7730 4100L7825 4100L7920 4100L7920 4337C 7920 4552 7922 4577 7940 4615C 7965 4667 8010 4694 8076 4695C 8138 4695 8174 4677 8203 4631C 8224 4597 8225 4583 8228 4348L8228 4348L8231 4100L8321 4100L8411 4100L8408 4373C 8404 4602 8401 4652 8386 4692C 8363 4753 8300 4824 8253 4843C 8201 4863 8123 4870 8077 4859z" stroke="none" fill="#000000" fill-rule="nonzero" />
	<g transform="matrix(0.1 0 -0 -0.1 0 1500)">
	</g>
    <path transform="matrix(0.1 0 -0 -0.1 0 1500)"  d="M8772 4859C 8700 4847 8627 4808 8572 4753L8572 4753L8526 4707L8556 4683C 8572 4671 8604 4646 8627 4630L8627 4630L8669 4599L8686 4625C 8695 4639 8723 4663 8747 4677C 8801 4708 8884 4713 8925 4686C 8958 4664 8990 4612 8990 4579L8990 4579L8990 4553L8838 4548C 8679 4542 8629 4531 8567 4486C 8500 4437 8480 4318 8524 4224C 8566 4135 8649 4090 8774 4090C 8858 4090 8917 4113 8973 4168L8973 4168L9010 4204L9010 4168C 9010 4103 9014 4100 9096 4100L9096 4100L9170 4100L9170 4343C 9170 4615 9161 4674 9109 4744C 9039 4839 8910 4883 8772 4859zM8990 4398C 8990 4386 8979 4358 8965 4334C 8921 4259 8801 4218 8731 4255C 8663 4290 8680 4389 8757 4406C 8773 4409 8790 4413 8795 4415C 8801 4417 8847 4419 8898 4419C 8986 4420 8990 4419 8990 4398z" stroke="none" fill="#000000" fill-rule="nonzero" />
	<g transform="matrix(0.1 0 -0 -0.1 0 1500)">
	</g>
    <path transform="matrix(0.1 0 -0 -0.1 0 1500)"  d="M5813 4836C 5816 4828 5851 4717 5890 4589C 5929 4460 5979 4298 6001 4228L6001 4228L6041 4100L6124 4100L6206 4100L6274 4328C 6312 4453 6345 4561 6349 4568C 6353 4576 6377 4514 6404 4423C 6430 4336 6463 4228 6476 4183L6476 4183L6501 4100L6584 4100L6666 4100L6781 4473L6896 4845L6802 4848C 6750 4849 6706 4849 6704 4848C 6702 4846 6673 4742 6639 4617C 6604 4493 6575 4392 6573 4394C 6571 4396 6538 4498 6501 4621L6501 4621L6433 4845L6354 4848L6275 4851L6206 4620C 6167 4493 6133 4395 6130 4402C 6126 4409 6096 4513 6064 4633L6064 4633L6005 4850L5907 4850C 5826 4850 5809 4847 5813 4836z" stroke="none" fill="#000000" fill-rule="nonzero" />
	<g transform="matrix(0.1 0 -0 -0.1 0 1500)">
	</g>
    <path transform="matrix(0.1 0 -0 -0.1 0 1500)"  d="M10550 4200L10550 4100L10645 4100L10740 4100L10740 4200L10740 4300L10645 4300L10550 4300L10550 4200z" stroke="none" fill="#000000" fill-rule="nonzero" />
	<g transform="matrix(0.1 0 -0 -0.1 0 1500)">
	</g>
    <path transform="matrix(0.1 0 -0 -0.1 0 1500)"  d="M0 2805L0 2780L7500 2780L15000 2780L15000 2805L15000 2830L7500 2830L0 2830L0 2805z" stroke="none" fill="#000000" fill-rule="nonzero" />
	<g transform="matrix(0.1 0 -0 -0.1 0 1500)">
	</g>
    <path transform="matrix(0.1 0 -0 -0.1 0 1500)"  d="M3870 1520L3870 1280L3910 1280L3949 1280L3952 1378L3955 1475L4068 1478L4180 1481L4180 1520L4180 1560L4065 1560L3949 1560L3952 1618L3955 1675L4083 1678L4210 1681L4210 1720L4210 1760L4040 1760L3870 1760L3870 1520z" stroke="none" fill="#000000" fill-rule="nonzero" />
	<g transform="matrix(0.1 0 -0 -0.1 0 1500)">
	</g>
    <path transform="matrix(0.1 0 -0 -0.1 0 1500)"  d="M4330 1598C 4330 1508 4335 1417 4341 1395C 4362 1316 4422 1276 4517 1277C 4665 1278 4704 1353 4698 1625L4698 1625L4695 1755L4653 1758L4610 1761L4610 1595C 4610 1379 4602 1360 4506 1360C 4431 1360 4426 1373 4420 1579L4420 1579L4415 1755L4373 1758L4330 1761L4330 1598z" stroke="none" fill="#000000" fill-rule="nonzero" />
	<g transform="matrix(0.1 0 -0 -0.1 0 1500)">
	</g>
    <path transform="matrix(0.1 0 -0 -0.1 0 1500)"  d="M4810 1720L4810 1680L4885 1680L4960 1680L4960 1480L4960 1280L5000 1280L5040 1280L5040 1480L5040 1680L5115 1680L5190 1680L5190 1720L5190 1760L5000 1760L4810 1760L4810 1720z" stroke="none" fill="#000000" fill-rule="nonzero" />
	<g transform="matrix(0.1 0 -0 -0.1 0 1500)">
	</g>
    <path transform="matrix(0.1 0 -0 -0.1 0 1500)"  d="M5310 1580C 5310 1419 5312 1395 5330 1360C 5354 1312 5386 1290 5446 1279C 5545 1260 5634 1306 5658 1388C 5665 1411 5670 1495 5670 1594L5670 1594L5670 1760L5631 1760L5592 1760L5588 1590C 5585 1438 5582 1418 5564 1393C 5549 1372 5533 1364 5505 1362C 5403 1353 5390 1379 5390 1600L5390 1600L5390 1760L5350 1760L5310 1760L5310 1580z" stroke="none" fill="#000000" fill-rule="nonzero" />
	<g transform="matrix(0.1 0 -0 -0.1 0 1500)">
	</g>
    <path transform="matrix(0.1 0 -0 -0.1 0 1500)"  d="M5840 1520L5840 1280L5880 1280L5920 1280L5920 1380L5920 1480L5953 1480C 5983 1480 5988 1474 6040 1380L6040 1380L6095 1280L6143 1280C 6169 1280 6190 1282 6190 1284C 6190 1287 6163 1332 6130 1384C 6097 1437 6070 1483 6070 1487C 6070 1491 6084 1504 6100 1515C 6167 1560 6172 1661 6110 1714C 6069 1748 6021 1760 5923 1760L5923 1760L5840 1760L5840 1520zM6050 1660C 6098 1612 6061 1559 5978 1556L5978 1556L5925 1555L5922 1618L5919 1680L5975 1680C 6017 1680 6035 1675 6050 1660z" stroke="none" fill="#000000" fill-rule="nonzero" />
	<g transform="matrix(0.1 0 -0 -0.1 0 1500)">
	</g>
    <path transform="matrix(0.1 0 -0 -0.1 0 1500)"  d="M6320 1520L6320 1280L6480 1280L6640 1280L6640 1320L6640 1360L6525 1360L6410 1360L6410 1420L6410 1480L6515 1480L6620 1480L6620 1520L6620 1560L6515 1560L6410 1560L6410 1620L6410 1680L6525 1680L6640 1680L6640 1720L6640 1760L6480 1760L6320 1760L6320 1520z" stroke="none" fill="#000000" fill-rule="nonzero" />
	<g transform="matrix(0.1 0 -0 -0.1 0 1500)">
	</g>
    <path transform="matrix(0.1 0 -0 -0.1 0 1500)"  d="M7115 1742C 7064 1718 7014 1662 7001 1613C 6981 1542 6987 1449 7016 1391C 7097 1229 7348 1235 7419 1400C 7469 1517 7438 1661 7349 1724C 7313 1749 7295 1754 7231 1757C 7172 1760 7146 1757 7115 1742zM7298 1661C 7315 1649 7334 1623 7341 1603C 7357 1554 7355 1471 7336 1427C 7295 1327 7136 1325 7094 1425C 7074 1474 7076 1577 7098 1619C 7136 1689 7231 1709 7298 1661z" stroke="none" fill="#000000" fill-rule="nonzero" />
	<g transform="matrix(0.1 0 -0 -0.1 0 1500)">
	</g>
    <path transform="matrix(0.1 0 -0 -0.1 0 1500)"  d="M7590 1520L7590 1280L7630 1280L7669 1280L7672 1378L7675 1475L7788 1478L7900 1481L7900 1520L7900 1560L7785 1560L7669 1560L7672 1618L7675 1675L7803 1678L7930 1681L7930 1720L7930 1760L7760 1760L7590 1760L7590 1520z" stroke="none" fill="#000000" fill-rule="nonzero" />
	<g transform="matrix(0.1 0 -0 -0.1 0 1500)">
	</g>
    <path transform="matrix(0.1 0 -0 -0.1 0 1500)"  d="M8373 1741C 8234 1676 8209 1429 8330 1326C 8423 1248 8586 1262 8653 1352C 8694 1408 8694 1409 8656 1425L8656 1425L8620 1440L8581 1400C 8543 1360 8528 1355 8455 1360C 8383 1364 8340 1424 8340 1520C 8340 1629 8388 1680 8491 1680C 8539 1680 8546 1677 8581 1640L8581 1640L8620 1600L8656 1615L8692 1630L8672 1662C 8661 1680 8633 1708 8610 1725C 8574 1751 8558 1755 8492 1758C 8432 1760 8406 1756 8373 1741z" stroke="none" fill="#000000" fill-rule="nonzero" />
	<g transform="matrix(0.1 0 -0 -0.1 0 1500)">
	</g>
    <path transform="matrix(0.1 0 -0 -0.1 0 1500)"  d="M8920 1744C 8844 1711 8800 1642 8792 1543C 8785 1452 8804 1395 8860 1339C 8899 1300 8917 1290 8964 1280C 9062 1260 9156 1294 9205 1368C 9286 1490 9249 1674 9131 1737C 9078 1765 8975 1768 8920 1744zM9095 1666C 9170 1617 9179 1464 9112 1389C 9091 1366 9073 1357 9039 1353C 8933 1341 8874 1410 8882 1536C 8887 1609 8907 1645 8961 1673C 9000 1694 9057 1691 9095 1666z" stroke="none" fill="#000000" fill-rule="nonzero" />
	<g transform="matrix(0.1 0 -0 -0.1 0 1500)">
	</g>
    <path transform="matrix(0.1 0 -0 -0.1 0 1500)"  d="M9397 1753C 9393 1750 9390 1642 9390 1513L9390 1513L9390 1280L9483 1280C 9632 1280 9710 1313 9753 1393C 9785 1455 9785 1588 9751 1647C 9720 1701 9684 1727 9613 1745C 9555 1760 9409 1766 9397 1753zM9639 1653C 9677 1624 9690 1592 9690 1522C 9690 1413 9651 1371 9543 1362L9543 1362L9480 1357L9480 1520L9480 1683L9546 1677C 9590 1674 9621 1665 9639 1653z" stroke="none" fill="#000000" fill-rule="nonzero" />
	<g transform="matrix(0.1 0 -0 -0.1 0 1500)">
	</g>
    <path transform="matrix(0.1 0 -0 -0.1 0 1500)"  d="M9927 1753C 9923 1750 9920 1642 9920 1513L9920 1513L9920 1280L9965 1280L10010 1280L10010 1520L10010 1760L9972 1760C 9951 1760 9930 1757 9927 1753z" stroke="none" fill="#000000" fill-rule="nonzero" />
	<g transform="matrix(0.1 0 -0 -0.1 0 1500)">
	</g>
    <path transform="matrix(0.1 0 -0 -0.1 0 1500)"  d="M10190 1521L10190 1280L10230 1280L10270 1280L10272 1446L10275 1611L10373 1446L10471 1280L10515 1280L10560 1280L10560 1521L10560 1761L10518 1758L10475 1755L10470 1598L10465 1440L10370 1598L10275 1755L10233 1758L10190 1761L10190 1521z" stroke="none" fill="#000000" fill-rule="nonzero" />
	<g transform="matrix(0.1 0 -0 -0.1 0 1500)">
	</g>
    <path transform="matrix(0.1 0 -0 -0.1 0 1500)"  d="M10823 1741C 10684 1676 10659 1429 10780 1326C 10828 1286 10914 1264 10968 1279C 11015 1291 11060 1317 11060 1332C 11060 1337 11065 1338 11070 1335C 11076 1332 11080 1318 11080 1304C 11080 1283 11085 1280 11115 1280L11115 1280L11150 1280L11150 1410L11150 1540L11055 1540L10960 1540L10960 1505L10960 1470L11010 1470C 11052 1470 11060 1467 11060 1451C 11060 1406 10988 1350 10930 1350C 10844 1350 10790 1416 10790 1522C 10790 1599 10812 1646 10861 1672C 10925 1706 11016 1685 11046 1629C 11063 1595 11061 1596 11106 1615L11106 1615L11141 1629L11116 1667C 11073 1731 11028 1755 10941 1758C 10882 1760 10855 1756 10823 1741z" stroke="none" fill="#000000" fill-rule="nonzero" />
</g>
</svg>